solid OpenSCAD_Model
  facet normal 0 -1 0
    outer loop
      vertex 5 -5 3
      vertex 5 -5 2
      vertex 15 -5 2
    endloop
  endfacet
  facet normal 0 1 0
    outer loop
      vertex 6 -4 3
      vertex 14 -4 2
      vertex 6 -4 2
    endloop
  endfacet
  facet normal -1 0 0
    outer loop
      vertex 14 -4 3
      vertex 14 4 2
      vertex 14 -4 2
    endloop
  endfacet
  facet normal 1 0 0
    outer loop
      vertex 15 -5 3
      vertex 15 -5 2
      vertex 15 5 2
    endloop
  endfacet
  facet normal 0 0 1
    outer loop
      vertex 5.5 -4.5 3
      vertex 14.5 -4.5 3
      vertex 6 -4 3
    endloop
  endfacet
  facet normal 0 -1 0
    outer loop
      vertex 5 -5 3
      vertex 15 -5 3
      vertex 5 -5 4
    endloop
  endfacet
  facet normal 0 1 0
    outer loop
      vertex 5.5 -4.5 3
      vertex 5.5 -4.5 4
      vertex 14.5 -4.5 3
    endloop
  endfacet
  facet normal 0 -1 0
    outer loop
      vertex 5 -5 4
      vertex 15 -5 4
      vertex 5 -5 5
    endloop
  endfacet
  facet normal 0 0 -1
    outer loop
      vertex 5.5 -4.5 4
      vertex 6 -4 4
      vertex 14 -4 4
    endloop
  endfacet
  facet normal 0 1 0
    outer loop
      vertex 6 -4 4
      vertex 6 -4 5
      vertex 14 -4 4
    endloop
  endfacet
  facet normal 0 0 1
    outer loop
      vertex 5 -5 5
      vertex 14 -4 5
      vertex 6 -4 5
    endloop
  endfacet
  facet normal -1 0 0
    outer loop
      vertex 5 -5 3
      vertex 5 5 3
      vertex 5 -5 2
    endloop
  endfacet
  facet normal 1 0 0
    outer loop
      vertex 6 -4 3
      vertex 6 -4 2
      vertex 6 4 3
    endloop
  endfacet
  facet normal 0 0 1
    outer loop
      vertex 5.5 -4.5 3
      vertex 6 -4 3
      vertex 6 4 3
    endloop
  endfacet
  facet normal -1 0 0
    outer loop
      vertex 5 -5 3
      vertex 5 -5 4
      vertex 5 5 4
    endloop
  endfacet
  facet normal 1 0 0
    outer loop
      vertex 5.5 -4.5 3
      vertex 5.5 4.5 4
      vertex 5.5 -4.5 4
    endloop
  endfacet
  facet normal 0 0 -1
    outer loop
      vertex 5.5 -4.5 4
      vertex 5.5 4.5 4
      vertex 6 -4 4
    endloop
  endfacet
  facet normal -1 0 0
    outer loop
      vertex 5 -5 4
      vertex 5 -5 5
      vertex 5 5 5
    endloop
  endfacet
  facet normal 1 0 0
    outer loop
      vertex 6 -4 4
      vertex 6 4 5
      vertex 6 -4 5
    endloop
  endfacet
  facet normal 0 0 1
    outer loop
      vertex 5 -5 5
      vertex 6 -4 5
      vertex 6 4 5
    endloop
  endfacet
  facet normal 0 -1 0
    outer loop
      vertex 5 -5 3
      vertex 15 -5 2
      vertex 15 -5 3
    endloop
  endfacet
  facet normal 0 1 0
    outer loop
      vertex 6 -4 3
      vertex 14 -4 3
      vertex 14 -4 2
    endloop
  endfacet
  facet normal 0 0 1
    outer loop
      vertex 6 -4 3
      vertex 14.5 -4.5 3
      vertex 14 -4 3
    endloop
  endfacet
  facet normal 0 -1 0
    outer loop
      vertex 5 -5 4
      vertex 15 -5 3
      vertex 15 -5 4
    endloop
  endfacet
  facet normal 0 1 0
    outer loop
      vertex 5.5 -4.5 4
      vertex 14.5 -4.5 4
      vertex 14.5 -4.5 3
    endloop
  endfacet
  facet normal 0 0 -1
    outer loop
      vertex 5.5 -4.5 4
      vertex 14 -4 4
      vertex 14.5 -4.5 4
    endloop
  endfacet
  facet normal 0 -1 0
    outer loop
      vertex 5 -5 5
      vertex 15 -5 4
      vertex 15 -5 5
    endloop
  endfacet
  facet normal 0 1 0
    outer loop
      vertex 6 -4 5
      vertex 14 -4 5
      vertex 14 -4 4
    endloop
  endfacet
  facet normal 0 0 1
    outer loop
      vertex 5 -5 5
      vertex 15 -5 5
      vertex 14 -4 5
    endloop
  endfacet
  facet normal 0 0 1
    outer loop
      vertex 14 -4 3
      vertex 14.5 -4.5 3
      vertex 14.5 4.5 3
    endloop
  endfacet
  facet normal -1 0 0
    outer loop
      vertex 14.5 -4.5 3
      vertex 14.5 -4.5 4
      vertex 14.5 4.5 3
    endloop
  endfacet
  facet normal 1 0 0
    outer loop
      vertex 15 -5 3
      vertex 15 5 3
      vertex 15 -5 4
    endloop
  endfacet
  facet normal 0 0 -1
    outer loop
      vertex 14 -4 4
      vertex 14 4 4
      vertex 14.5 -4.5 4
    endloop
  endfacet
  facet normal -1 0 0
    outer loop
      vertex 14 -4 4
      vertex 14 -4 5
      vertex 14 4 4
    endloop
  endfacet
  facet normal 1 0 0
    outer loop
      vertex 15 -5 4
      vertex 15 5 4
      vertex 15 -5 5
    endloop
  endfacet
  facet normal 0 0 1
    outer loop
      vertex 14 -4 5
      vertex 15 -5 5
      vertex 14 4 5
    endloop
  endfacet
  facet normal -1 0 0
    outer loop
      vertex 5 5 3
      vertex 5 5 2
      vertex 5 -5 2
    endloop
  endfacet
  facet normal 1 0 0
    outer loop
      vertex 6 4 3
      vertex 6 -4 2
      vertex 6 4 2
    endloop
  endfacet
  facet normal 0 -1 0
    outer loop
      vertex 14 4 3
      vertex 6 4 2
      vertex 14 4 2
    endloop
  endfacet
  facet normal 0 1 0
    outer loop
      vertex 15 5 3
      vertex 15 5 2
      vertex 5 5 2
    endloop
  endfacet
  facet normal 0 0 1
    outer loop
      vertex 5.5 -4.5 3
      vertex 6 4 3
      vertex 5.5 4.5 3
    endloop
  endfacet
  facet normal -1 0 0
    outer loop
      vertex 5 -5 3
      vertex 5 5 4
      vertex 5 5 3
    endloop
  endfacet
  facet normal 1 0 0
    outer loop
      vertex 5.5 -4.5 3
      vertex 5.5 4.5 3
      vertex 5.5 4.5 4
    endloop
  endfacet
  facet normal 0 0 -1
    outer loop
      vertex 6 -4 4
      vertex 5.5 4.5 4
      vertex 6 4 4
    endloop
  endfacet
  facet normal -1 0 0
    outer loop
      vertex 5 -5 4
      vertex 5 5 5
      vertex 5 5 4
    endloop
  endfacet
  facet normal 1 0 0
    outer loop
      vertex 6 -4 4
      vertex 6 4 4
      vertex 6 4 5
    endloop
  endfacet
  facet normal 0 0 1
    outer loop
      vertex 5 -5 5
      vertex 6 4 5
      vertex 5 5 5
    endloop
  endfacet
  facet normal 0 -1 0
    outer loop
      vertex 6 4 3
      vertex 6 4 2
      vertex 14 4 3
    endloop
  endfacet
  facet normal 0 0 1
    outer loop
      vertex 5.5 4.5 3
      vertex 6 4 3
      vertex 14 4 3
    endloop
  endfacet
  facet normal 0 1 0
    outer loop
      vertex 5 5 3
      vertex 15 5 3
      vertex 5 5 2
    endloop
  endfacet
  facet normal 0 -1 0
    outer loop
      vertex 5.5 4.5 3
      vertex 14.5 4.5 4
      vertex 5.5 4.5 4
    endloop
  endfacet
  facet normal 0 1 0
    outer loop
      vertex 5 5 3
      vertex 5 5 4
      vertex 15 5 4
    endloop
  endfacet
  facet normal 0 0 -1
    outer loop
      vertex 5.5 4.5 4
      vertex 14.5 4.5 4
      vertex 6 4 4
    endloop
  endfacet
  facet normal 0 -1 0
    outer loop
      vertex 6 4 4
      vertex 14 4 5
      vertex 6 4 5
    endloop
  endfacet
  facet normal 0 0 1
    outer loop
      vertex 5 5 5
      vertex 6 4 5
      vertex 14 4 5
    endloop
  endfacet
  facet normal 0 1 0
    outer loop
      vertex 5 5 4
      vertex 5 5 5
      vertex 15 5 5
    endloop
  endfacet
  facet normal -1 0 0
    outer loop
      vertex 14 -4 3
      vertex 14 4 3
      vertex 14 4 2
    endloop
  endfacet
  facet normal 1 0 0
    outer loop
      vertex 15 -5 3
      vertex 15 5 2
      vertex 15 5 3
    endloop
  endfacet
  facet normal 0 0 1
    outer loop
      vertex 14 -4 3
      vertex 14.5 4.5 3
      vertex 14 4 3
    endloop
  endfacet
  facet normal -1 0 0
    outer loop
      vertex 14.5 -4.5 4
      vertex 14.5 4.5 4
      vertex 14.5 4.5 3
    endloop
  endfacet
  facet normal 1 0 0
    outer loop
      vertex 15 -5 4
      vertex 15 5 3
      vertex 15 5 4
    endloop
  endfacet
  facet normal 0 0 -1
    outer loop
      vertex 14.5 -4.5 4
      vertex 14 4 4
      vertex 14.5 4.5 4
    endloop
  endfacet
  facet normal -1 0 0
    outer loop
      vertex 14 -4 5
      vertex 14 4 5
      vertex 14 4 4
    endloop
  endfacet
  facet normal 1 0 0
    outer loop
      vertex 15 -5 5
      vertex 15 5 4
      vertex 15 5 5
    endloop
  endfacet
  facet normal 0 0 1
    outer loop
      vertex 15 -5 5
      vertex 15 5 5
      vertex 14 4 5
    endloop
  endfacet
  facet normal 0 0 1
    outer loop
      vertex 5.5 4.5 3
      vertex 14 4 3
      vertex 14.5 4.5 3
    endloop
  endfacet
  facet normal 0 -1 0
    outer loop
      vertex 5.5 4.5 3
      vertex 14.5 4.5 3
      vertex 14.5 4.5 4
    endloop
  endfacet
  facet normal 0 1 0
    outer loop
      vertex 5 5 3
      vertex 15 5 4
      vertex 15 5 3
    endloop
  endfacet
  facet normal 0 0 -1
    outer loop
      vertex 6 4 4
      vertex 14.5 4.5 4
      vertex 14 4 4
    endloop
  endfacet
  facet normal 0 -1 0
    outer loop
      vertex 6 4 4
      vertex 14 4 4
      vertex 14 4 5
    endloop
  endfacet
  facet normal 0 1 0
    outer loop
      vertex 5 5 4
      vertex 15 5 5
      vertex 15 5 4
    endloop
  endfacet
  facet normal 0 0 1
    outer loop
      vertex 5 5 5
      vertex 14 4 5
      vertex 15 5 5
    endloop
  endfacet
  facet normal 0 -1 0
    outer loop
      vertex 2.5 -7.5 0
      vertex 17.5 -7.5 0
      vertex 2.5 -7.5 2
    endloop
  endfacet
  facet normal 0 0 1
    outer loop
      vertex 2.5 -7.5 2
      vertex 15 -5 2
      vertex 5 -5 2
    endloop
  endfacet
  facet normal 0 0 -1
    outer loop
      vertex 2.5 -7.5 0
      vertex 2.5 7.5 0
      vertex 7 -3 0
    endloop
  endfacet
  facet normal -1 0 0
    outer loop
      vertex 2.5 -7.5 0
      vertex 2.5 -7.5 2
      vertex 2.5 7.5 2
    endloop
  endfacet
  facet normal 0 0 1
    outer loop
      vertex 2.5 -7.5 2
      vertex 5 -5 2
      vertex 2.5 7.5 2
    endloop
  endfacet
  facet normal 0 0 1
    outer loop
      vertex 7 -3 2
      vertex 6 -4 2
      vertex 13 -3 2
    endloop
  endfacet
  facet normal 1 0 0
    outer loop
      vertex 7 -3 0
      vertex 7 3 2
      vertex 7 -3 2
    endloop
  endfacet
  facet normal 0 0 1
    outer loop
      vertex 7 -3 2
      vertex 6 4 2
      vertex 6 -4 2
    endloop
  endfacet
  facet normal 0 0 -1
    outer loop
      vertex 2.5 -7.5 0
      vertex 7 -3 0
      vertex 17.5 -7.5 0
    endloop
  endfacet
  facet normal 0 0 -1
    outer loop
      vertex 7 -3 0
      vertex 13 -3 0
      vertex 17.5 -7.5 0
    endloop
  endfacet
  facet normal 0 -1 0
    outer loop
      vertex 2.5 -7.5 2
      vertex 17.5 -7.5 0
      vertex 17.5 -7.5 2
    endloop
  endfacet
  facet normal 0 0 1
    outer loop
      vertex 2.5 -7.5 2
      vertex 17.5 -7.5 2
      vertex 15 -5 2
    endloop
  endfacet
  facet normal 0 1 0
    outer loop
      vertex 7 -3 0
      vertex 7 -3 2
      vertex 13 -3 0
    endloop
  endfacet
  facet normal -1 0 0
    outer loop
      vertex 13 -3 0
      vertex 13 -3 2
      vertex 13 3 0
    endloop
  endfacet
  facet normal 1 0 0
    outer loop
      vertex 17.5 -7.5 0
      vertex 17.5 7.5 0
      vertex 17.5 -7.5 2
    endloop
  endfacet
  facet normal 0 0 -1
    outer loop
      vertex 13 -3 0
      vertex 17.5 7.5 0
      vertex 17.5 -7.5 0
    endloop
  endfacet
  facet normal 0 1 0
    outer loop
      vertex 7 -3 2
      vertex 13 -3 2
      vertex 13 -3 0
    endloop
  endfacet
  facet normal 0 0 1
    outer loop
      vertex 13 -3 2
      vertex 6 -4 2
      vertex 14 -4 2
    endloop
  endfacet
  facet normal 0 0 1
    outer loop
      vertex 17.5 -7.5 2
      vertex 15 5 2
      vertex 15 -5 2
    endloop
  endfacet
  facet normal 0 0 1
    outer loop
      vertex 13 -3 2
      vertex 14 -4 2
      vertex 13 3 2
    endloop
  endfacet
  facet normal -1 0 0
    outer loop
      vertex 2.5 -7.5 0
      vertex 2.5 7.5 2
      vertex 2.5 7.5 0
    endloop
  endfacet
  facet normal 1 0 0
    outer loop
      vertex 7 -3 0
      vertex 7 3 0
      vertex 7 3 2
    endloop
  endfacet
  facet normal 0 0 -1
    outer loop
      vertex 7 -3 0
      vertex 2.5 7.5 0
      vertex 7 3 0
    endloop
  endfacet
  facet normal 0 0 1
    outer loop
      vertex 2.5 7.5 2
      vertex 5 -5 2
      vertex 5 5 2
    endloop
  endfacet
  facet normal 0 0 1
    outer loop
      vertex 7 -3 2
      vertex 7 3 2
      vertex 6 4 2
    endloop
  endfacet
  facet normal 0 1 0
    outer loop
      vertex 2.5 7.5 0
      vertex 2.5 7.5 2
      vertex 17.5 7.5 2
    endloop
  endfacet
  facet normal 0 0 1
    outer loop
      vertex 2.5 7.5 2
      vertex 5 5 2
      vertex 17.5 7.5 2
    endloop
  endfacet
  facet normal 0 -1 0
    outer loop
      vertex 7 3 0
      vertex 13 3 0
      vertex 13 3 2
    endloop
  endfacet
  facet normal 0 0 -1
    outer loop
      vertex 13 -3 0
      vertex 13 3 0
      vertex 17.5 7.5 0
    endloop
  endfacet
  facet normal -1 0 0
    outer loop
      vertex 13 -3 2
      vertex 13 3 2
      vertex 13 3 0
    endloop
  endfacet
  facet normal 0 -1 0
    outer loop
      vertex 7 3 0
      vertex 13 3 2
      vertex 7 3 2
    endloop
  endfacet
  facet normal 0 0 1
    outer loop
      vertex 7 3 2
      vertex 14 4 2
      vertex 6 4 2
    endloop
  endfacet
  facet normal 0 0 1
    outer loop
      vertex 7 3 2
      vertex 13 3 2
      vertex 14 4 2
    endloop
  endfacet
  facet normal 0 0 1
    outer loop
      vertex 13 3 2
      vertex 14 -4 2
      vertex 14 4 2
    endloop
  endfacet
  facet normal 0 0 1
    outer loop
      vertex 17.5 -7.5 2
      vertex 17.5 7.5 2
      vertex 15 5 2
    endloop
  endfacet
  facet normal 1 0 0
    outer loop
      vertex 17.5 -7.5 2
      vertex 17.5 7.5 0
      vertex 17.5 7.5 2
    endloop
  endfacet
  facet normal 0 0 -1
    outer loop
      vertex 7 3 0
      vertex 17.5 7.5 0
      vertex 13 3 0
    endloop
  endfacet
  facet normal 0 0 -1
    outer loop
      vertex 2.5 7.5 0
      vertex 17.5 7.5 0
      vertex 7 3 0
    endloop
  endfacet
  facet normal 0 1 0
    outer loop
      vertex 2.5 7.5 0
      vertex 17.5 7.5 2
      vertex 17.5 7.5 0
    endloop
  endfacet
  facet normal 0 0 1
    outer loop
      vertex 17.5 7.5 2
      vertex 5 5 2
      vertex 15 5 2
    endloop
  endfacet
  facet normal 0 -1 0
    outer loop
      vertex -15 -5 3
      vertex -15 -5 2
      vertex -5 -5 2
    endloop
  endfacet
  facet normal 1 0 0
    outer loop
      vertex -5 -5 3
      vertex -5 -5 2
      vertex -5 5 2
    endloop
  endfacet
  facet normal 0 0 1
    outer loop
      vertex -15 -5 3
      vertex -5 -5 3
      vertex -7 -3 3
    endloop
  endfacet
  facet normal 0 -1 0
    outer loop
      vertex -14 -4 4
      vertex -6 -4 4
      vertex -14 -4 5
    endloop
  endfacet
  facet normal -1 0 0
    outer loop
      vertex -15 -5 3
      vertex -15 5 3
      vertex -15 -5 2
    endloop
  endfacet
  facet normal 0 0 1
    outer loop
      vertex -15 -5 3
      vertex -13 -3 3
      vertex -13 3 3
    endloop
  endfacet
  facet normal 0 0 1
    outer loop
      vertex -15 -5 3
      vertex -7 -3 3
      vertex -13 -3 3
    endloop
  endfacet
  facet normal 0 -1 0
    outer loop
      vertex -13 -3 3
      vertex -7 -3 3
      vertex -13 -3 4
    endloop
  endfacet
  facet normal 0 -1 0
    outer loop
      vertex -13 -3 4
      vertex -7 -3 3
      vertex -7 -3 4
    endloop
  endfacet
  facet normal -1 0 0
    outer loop
      vertex -13 -3 3
      vertex -13 -3 4
      vertex -13 3 4
    endloop
  endfacet
  facet normal 0 0 -1
    outer loop
      vertex -14 -4 4
      vertex -13 3 4
      vertex -13 -3 4
    endloop
  endfacet
  facet normal -1 0 0
    outer loop
      vertex -14 -4 4
      vertex -14 -4 5
      vertex -14 4 5
    endloop
  endfacet
  facet normal 0 0 -1
    outer loop
      vertex -14 -4 4
      vertex -13 -3 4
      vertex -7 -3 4
    endloop
  endfacet
  facet normal 0 0 -1
    outer loop
      vertex -14 -4 4
      vertex -7 -3 4
      vertex -6 -4 4
    endloop
  endfacet
  facet normal 0 0 1
    outer loop
      vertex -14 -4 5
      vertex -6 -4 5
      vertex -14 4 5
    endloop
  endfacet
  facet normal 0 -1 0
    outer loop
      vertex -15 -5 3
      vertex -5 -5 2
      vertex -5 -5 3
    endloop
  endfacet
  facet normal 0 -1 0
    outer loop
      vertex -14 -4 5
      vertex -6 -4 4
      vertex -6 -4 5
    endloop
  endfacet
  facet normal 0 0 1
    outer loop
      vertex -7 -3 3
      vertex -5 -5 3
      vertex -5 5 3
    endloop
  endfacet
  facet normal 1 0 0
    outer loop
      vertex -7 -3 3
      vertex -7 3 3
      vertex -7 -3 4
    endloop
  endfacet
  facet normal 0 0 -1
    outer loop
      vertex -7 -3 4
      vertex -6 4 4
      vertex -6 -4 4
    endloop
  endfacet
  facet normal 1 0 0
    outer loop
      vertex -6 -4 4
      vertex -6 4 4
      vertex -6 -4 5
    endloop
  endfacet
  facet normal -1 0 0
    outer loop
      vertex -15 5 3
      vertex -15 5 2
      vertex -15 -5 2
    endloop
  endfacet
  facet normal 0 1 0
    outer loop
      vertex -5 5 3
      vertex -5 5 2
      vertex -15 5 2
    endloop
  endfacet
  facet normal 0 0 1
    outer loop
      vertex -15 -5 3
      vertex -13 3 3
      vertex -15 5 3
    endloop
  endfacet
  facet normal -1 0 0
    outer loop
      vertex -13 -3 3
      vertex -13 3 4
      vertex -13 3 3
    endloop
  endfacet
  facet normal 0 1 0
    outer loop
      vertex -13 3 3
      vertex -13 3 4
      vertex -7 3 4
    endloop
  endfacet
  facet normal 0 1 0
    outer loop
      vertex -13 3 3
      vertex -7 3 4
      vertex -7 3 3
    endloop
  endfacet
  facet normal 0 0 -1
    outer loop
      vertex -14 -4 4
      vertex -14 4 4
      vertex -13 3 4
    endloop
  endfacet
  facet normal -1 0 0
    outer loop
      vertex -14 -4 4
      vertex -14 4 5
      vertex -14 4 4
    endloop
  endfacet
  facet normal 0 0 -1
    outer loop
      vertex -14 4 4
      vertex -6 4 4
      vertex -13 3 4
    endloop
  endfacet
  facet normal 0 0 1
    outer loop
      vertex -15 5 3
      vertex -13 3 3
      vertex -5 5 3
    endloop
  endfacet
  facet normal 0 1 0
    outer loop
      vertex -15 5 3
      vertex -5 5 3
      vertex -15 5 2
    endloop
  endfacet
  facet normal 0 1 0
    outer loop
      vertex -14 4 4
      vertex -14 4 5
      vertex -6 4 5
    endloop
  endfacet
  facet normal 1 0 0
    outer loop
      vertex -5 -5 3
      vertex -5 5 2
      vertex -5 5 3
    endloop
  endfacet
  facet normal 0 0 1
    outer loop
      vertex -7 -3 3
      vertex -5 5 3
      vertex -7 3 3
    endloop
  endfacet
  facet normal 1 0 0
    outer loop
      vertex -7 -3 4
      vertex -7 3 3
      vertex -7 3 4
    endloop
  endfacet
  facet normal 0 0 1
    outer loop
      vertex -13 3 3
      vertex -7 3 3
      vertex -5 5 3
    endloop
  endfacet
  facet normal 0 0 -1
    outer loop
      vertex -7 -3 4
      vertex -7 3 4
      vertex -6 4 4
    endloop
  endfacet
  facet normal 0 0 1
    outer loop
      vertex -14 4 5
      vertex -6 -4 5
      vertex -6 4 5
    endloop
  endfacet
  facet normal 1 0 0
    outer loop
      vertex -6 -4 5
      vertex -6 4 4
      vertex -6 4 5
    endloop
  endfacet
  facet normal 0 0 -1
    outer loop
      vertex -13 3 4
      vertex -6 4 4
      vertex -7 3 4
    endloop
  endfacet
  facet normal 0 1 0
    outer loop
      vertex -14 4 4
      vertex -6 4 5
      vertex -6 4 4
    endloop
  endfacet
  facet normal 0 -1 0
    outer loop
      vertex -17.5 -7.5 0
      vertex -2.5 -7.5 0
      vertex -17.5 -7.5 2
    endloop
  endfacet
  facet normal 0 0 1
    outer loop
      vertex -17.5 -7.5 2
      vertex -5 -5 2
      vertex -15 -5 2
    endloop
  endfacet
  facet normal 0 0 -1
    outer loop
      vertex -17.5 -7.5 0
      vertex -17.5 7.5 0
      vertex -2.5 -7.5 0
    endloop
  endfacet
  facet normal -1 0 0
    outer loop
      vertex -17.5 -7.5 0
      vertex -17.5 -7.5 2
      vertex -17.5 7.5 2
    endloop
  endfacet
  facet normal 0 0 1
    outer loop
      vertex -17.5 -7.5 2
      vertex -15 -5 2
      vertex -15 5 2
    endloop
  endfacet
  facet normal 0 -1 0
    outer loop
      vertex -17.5 -7.5 2
      vertex -2.5 -7.5 0
      vertex -2.5 -7.5 2
    endloop
  endfacet
  facet normal 0 0 1
    outer loop
      vertex -17.5 -7.5 2
      vertex -2.5 -7.5 2
      vertex -5 -5 2
    endloop
  endfacet
  facet normal 1 0 0
    outer loop
      vertex -2.5 -7.5 0
      vertex -2.5 7.5 0
      vertex -2.5 -7.5 2
    endloop
  endfacet
  facet normal 0 0 1
    outer loop
      vertex -2.5 -7.5 2
      vertex -2.5 7.5 2
      vertex -5 -5 2
    endloop
  endfacet
  facet normal -1 0 0
    outer loop
      vertex -17.5 -7.5 0
      vertex -17.5 7.5 2
      vertex -17.5 7.5 0
    endloop
  endfacet
  facet normal 0 0 1
    outer loop
      vertex -17.5 -7.5 2
      vertex -15 5 2
      vertex -17.5 7.5 2
    endloop
  endfacet
  facet normal 0 1 0
    outer loop
      vertex -17.5 7.5 0
      vertex -17.5 7.5 2
      vertex -2.5 7.5 2
    endloop
  endfacet
  facet normal 0 0 1
    outer loop
      vertex -17.5 7.5 2
      vertex -15 5 2
      vertex -2.5 7.5 2
    endloop
  endfacet
  facet normal 0 0 -1
    outer loop
      vertex -17.5 7.5 0
      vertex -2.5 7.5 0
      vertex -2.5 -7.5 0
    endloop
  endfacet
  facet normal 1 0 0
    outer loop
      vertex -2.5 -7.5 2
      vertex -2.5 7.5 0
      vertex -2.5 7.5 2
    endloop
  endfacet
  facet normal 0 0 1
    outer loop
      vertex -2.5 7.5 2
      vertex -5 5 2
      vertex -5 -5 2
    endloop
  endfacet
  facet normal 0 1 0
    outer loop
      vertex -17.5 7.5 0
      vertex -2.5 7.5 2
      vertex -2.5 7.5 0
    endloop
  endfacet
  facet normal 0 0 1
    outer loop
      vertex -2.5 7.5 2
      vertex -15 5 2
      vertex -5 5 2
    endloop
  endfacet
endsolid OpenSCAD_Model
