solid OpenSCAD_Model
  facet normal 0.7572088465064855 0 0.6531728429537758
    outer loop
      vertex -6.1869418967139085 0 24.242482727027397
      vertex -6.409077824038653 4.555826042131989 24.5
      vertex -6.409077824038653 0 24.5
    endloop
  endfacet
  facet normal 0 1 0
    outer loop
      vertex -6.1869418967139085 0 24.242482727027397
      vertex -6.409077824038653 0 24.5
      vertex -5.904341622907672 0 23.94565837709233
    endloop
  endfacet
  facet normal 0 1 0
    outer loop
      vertex -5.607517272972604 0 23.663058103286094
      vertex -5.904341622907672 0 23.94565837709233
      vertex -6.409077824038653 0 24.5
    endloop
  endfacet
  facet normal 0 1 0
    outer loop
      vertex -5.29718392276644 0 23.395362714421147
      vertex -6.409077824038653 0 24.5
      vertex -4.974089192511818 0 23.143217112136618
    endloop
  endfacet
  facet normal 0 1 0
    outer loop
      vertex -5.607517272972604 0 23.663058103286094
      vertex -6.409077824038653 0 24.5
      vertex -5.29718392276644 0 23.395362714421147
    endloop
  endfacet
  facet normal 0.724247082951467 0 0.6895405447370667
    outer loop
      vertex -6.1869418967139085 0 24.242482727027397
      vertex -5.904341622907672 0 23.94565837709233
      vertex -5.904341622907672 4.847235623814704 23.94565837709233
    endloop
  endfacet
  facet normal 0.6531728429537785 0 0.757208846506483
    outer loop
      vertex -5.607517272972604 0 23.663058103286094
      vertex -5.29718392276644 0 23.395362714421147
      vertex -5.607517272972604 5.018607242204675 23.663058103286094
    endloop
  endfacet
  facet normal 0.6895405447370656 0 0.7242470829514681
    outer loop
      vertex -5.607517272972604 0 23.663058103286094
      vertex -5.904341622907672 4.847235623814704 23.94565837709233
      vertex -5.904341622907672 0 23.94565837709233
    endloop
  endfacet
  facet normal 0.7572088465064855 0 0.6531728429537756
    outer loop
      vertex -6.1869418967139085 0 24.242482727027397
      vertex -6.1869418967139085 4.684076279609224 24.242482727027397
      vertex -6.409077824038653 4.555826042131989 24.5
    endloop
  endfacet
  facet normal 0.724247082951467 0 0.6895405447370668
    outer loop
      vertex -6.1869418967139085 0 24.242482727027397
      vertex -5.904341622907672 4.847235623814704 23.94565837709233
      vertex -6.1869418967139085 4.684076279609224 24.242482727027397
    endloop
  endfacet
  facet normal 0.6531728429537786 0 0.757208846506483
    outer loop
      vertex -5.29718392276644 0 23.395362714421147
      vertex -5.29718392276644 5.197778285540055 23.395362714421147
      vertex -5.607517272972604 5.018607242204675 23.663058103286094
    endloop
  endfacet
  facet normal 0.6895405447370657 0 0.7242470829514682
    outer loop
      vertex -5.607517272972604 0 23.663058103286094
      vertex -5.607517272972604 5.018607242204675 23.663058103286094
      vertex -5.904341622907672 4.847235623814704 23.94565837709233
    endloop
  endfacet
  facet normal 0 1 0
    outer loop
      vertex -4.974089192511818 0 23.143217112136618
      vertex -6.409077824038653 0 24.5
      vertex -4.639011445713678 0 22.907228737273748
    endloop
  endfacet
  facet normal 0 1 0
    outer loop
      vertex -4.639011445713678 0 22.907228737273748
      vertex -6.409077824038653 0 24.5
      vertex -4.292757914013402 0 22.68796610649773
    endloop
  endfacet
  facet normal 0 1 0
    outer loop
      vertex -4.292757914013402 0 22.68796610649773
      vertex -6.409077824038653 0 24.5
      vertex -3.93616275249708 0 22.485957442691237
    endloop
  endfacet
  facet normal 0 1 0
    outer loop
      vertex -3.93616275249708 0 22.485957442691237
      vertex -6.409077824038653 0 24.5
      vertex -3.570085030142855 0 22.30168940241925
    endloop
  endfacet
  facet normal 0.534997619887097 0 0.8448535652497071
    outer loop
      vertex -4.639011445713678 0 22.907228737273748
      vertex -4.292757914013402 0 22.68796610649773
      vertex -4.639011445713678 5.5777743424570225 22.907228737273748
    endloop
  endfacet
  facet normal 0.6152315905806226 0 0.7883464276266096
    outer loop
      vertex -5.29718392276644 0 23.395362714421147
      vertex -4.974089192511818 0 23.143217112136618
      vertex -5.29718392276644 5.197778285540055 23.395362714421147
    endloop
  endfacet
  facet normal 0.5758081914178496 0 0.8175848131515806
    outer loop
      vertex -4.974089192511818 0 23.143217112136618
      vertex -4.639011445713678 0 22.907228737273748
      vertex -4.974089192511818 5.384317115083919 23.143217112136618
    endloop
  endfacet
  facet normal 0 1 0
    outer loop
      vertex -3.1954066602484996 0 22.13560590353076
      vertex -6.409077824038653 0 24.5
      vertex -2.8130302758250374 0 21.988107055721777
    endloop
  endfacet
  facet normal 0 1 0
    outer loop
      vertex -2.8130302758250374 0 21.988107055721777
      vertex -6.409077824038653 0 24.5
      vertex -2.4238770550747604 0 21.85954819663606
    endloop
  endfacet
  facet normal 0 1 0
    outer loop
      vertex -2.4238770550747604 0 21.85954819663606
      vertex -6.409077824038653 0 24.5
      vertex -2.0288845021922532 0 21.750239035825558
    endloop
  endfacet
  facet normal 0 1 0
    outer loop
      vertex -3.570085030142855 0 22.30168940241925
      vertex -6.409077824038653 0 24.5
      vertex -3.1954066602484996 0 22.13560590353076
    endloop
  endfacet
  facet normal 0.4928981922297816 0 0.8700869911087127
    outer loop
      vertex -4.292757914013402 0 22.68796610649773
      vertex -3.93616275249708 0 22.485957442691237
      vertex -4.292757914013402 5.777683912253773 22.68796610649773
    endloop
  endfacet
  facet normal 0.44961132965460743 0 0.8932243011955149
    outer loop
      vertex -3.93616275249708 0 22.485957442691237
      vertex -3.570085030142855 0 22.30168940241925
      vertex -3.93616275249708 5.98356422481052 22.485957442691237
    endloop
  endfacet
  facet normal 0.6152315905806227 0 0.7883464276266097
    outer loop
      vertex -4.974089192511818 0 23.143217112136618
      vertex -4.974089192511818 5.384317115083919 23.143217112136618
      vertex -5.29718392276644 5.197778285540055 23.395362714421147
    endloop
  endfacet
  facet normal 0.5758081914178496 0 0.8175848131515806
    outer loop
      vertex -4.639011445713678 0 22.907228737273748
      vertex -4.639011445713678 5.5777743424570225 22.907228737273748
      vertex -4.974089192511818 5.384317115083919 23.143217112136618
    endloop
  endfacet
  facet normal 0.534997619887097 0 0.8448535652497073
    outer loop
      vertex -4.292757914013402 0 22.68796610649773
      vertex -4.292757914013402 5.777683912253773 22.68796610649773
      vertex -4.639011445713678 5.5777743424570225 22.907228737273748
    endloop
  endfacet
  facet normal 0.4928981922297816 0 0.8700869911087128
    outer loop
      vertex -3.93616275249708 0 22.485957442691237
      vertex -3.93616275249708 5.98356422481052 22.485957442691237
      vertex -4.292757914013402 5.777683912253773 22.68796610649773
    endloop
  endfacet
  facet normal 0.4496113296546075 0 0.8932243011955149
    outer loop
      vertex -3.570085030142855 0 22.30168940241925
      vertex -3.570085030142855 6.194919296421329 22.30168940241925
      vertex -3.93616275249708 5.98356422481052 22.485957442691237
    endloop
  endfacet
  facet normal 0 1 0
    outer loop
      vertex -2.0288845021922532 0 21.750239035825558
      vertex -6.409077824038653 0 24.5
      vertex -1.629004188834671 0 21.66044290863303
    endloop
  endfacet
  facet normal 0 1 0
    outer loop
      vertex -1.629004188834671 0 21.66044290863303
      vertex -6.409077824038653 0 24.5
      vertex -1.2251994617022706 0 21.59037614179408
    endloop
  endfacet
  facet normal 0 1 0
    outer loop
      vertex -1.2251994617022706 0 21.59037614179408
      vertex -6.409077824038653 0 24.5
      vertex -0.818443121751831 0 21.540207532287155
    endloop
  endfacet
  facet normal 0 1 0
    outer loop
      vertex -0.818443121751831 0 21.540207532287155
      vertex -6.409077824038653 0 24.5
      vertex -0.4097150806339404 0 21.510057940686814
    endloop
  endfacet
  facet normal 0 1 0
    outer loop
      vertex -0.4097150806339404 0 21.510057940686814
      vertex -6.409077824038653 0 24.5
      vertex 0 0 21.5
    endloop
  endfacet
  facet normal 0 1 0
    outer loop
      vertex 0 0 21.5
      vertex -6.409077824038653 0 24.5
      vertex 0.4097150806339404 0 21.510057940686814
    endloop
  endfacet
  facet normal 0.40524131400498514 0 0.9142097557035328
    outer loop
      vertex -3.570085030142855 0 22.30168940241925
      vertex -3.1954066602484996 0 22.13560590353076
      vertex -3.570085030142855 6.194919296421329 22.30168940241925
    endloop
  endfacet
  facet normal 0.35989503653499577 0 0.9329927988347358
    outer loop
      vertex -3.1954066602484996 0 22.13560590353076
      vertex -2.8130302758250374 0 21.988107055721777
      vertex -3.1954066602484996 6.41123995420617 22.13560590353076
    endloop
  endfacet
  facet normal 0.3136817403988858 0 0.9495281805930386
    outer loop
      vertex -2.8130302758250374 0 21.988107055721777
      vertex -2.4238770550747604 0 21.85954819663606
      vertex -2.8130302758250374 6.63200506275299 21.988107055721777
    endloop
  endfacet
  facet normal 0.2667127574749036 0 0.9637760657954385
    outer loop
      vertex -2.4238770550747604 0 21.85954819663606
      vertex -2.0288845021922532 0 21.750239035825558
      vertex -2.4238770550747604 6.856682779578559 21.85954819663606
    endloop
  endfacet
  facet normal 0.2191012401568614 0 0.9757021300385303
    outer loop
      vertex -2.0288845021922532 0 21.750239035825558
      vertex -1.629004188834671 0 21.66044290863303
      vertex -2.0288845021922532 7.0847318363835985 21.750239035825558
    endloop
  endfacet
  facet normal 0 1 0
    outer loop
      vertex 0.4097150806339404 0 21.510057940686814
      vertex -6.409077824038653 0 24.5
      vertex 0.818443121751831 0 21.540207532287155
    endloop
  endfacet
  facet normal 0 1 0
    outer loop
      vertex 0.818443121751831 0 21.540207532287155
      vertex -6.409077824038653 0 24.5
      vertex 1.2251994617022706 0 21.59037614179408
    endloop
  endfacet
  facet normal 0 1 0
    outer loop
      vertex 1.2251994617022706 0 21.59037614179408
      vertex -6.409077824038653 0 24.5
      vertex 1.629004188834671 0 21.66044290863303
    endloop
  endfacet
  facet normal 0 1 0
    outer loop
      vertex 1.629004188834671 0 21.66044290863303
      vertex -6.409077824038653 0 24.5
      vertex 2.0288845021922532 0 21.750239035825558
    endloop
  endfacet
  facet normal 0 1 0
    outer loop
      vertex 2.0288845021922532 0 21.750239035825558
      vertex -6.409077824038653 0 24.5
      vertex 2.4238770550747604 0 21.85954819663606
    endloop
  endfacet
  facet normal 0 1 0
    outer loop
      vertex 2.4238770550747604 0 21.85954819663606
      vertex -6.409077824038653 0 24.5
      vertex 2.8130302758250374 0 21.988107055721777
    endloop
  endfacet
  facet normal 0 1 0
    outer loop
      vertex 2.8130302758250374 0 21.988107055721777
      vertex -6.409077824038653 0 24.5
      vertex 3.1954066602484996 0 22.13560590353076
    endloop
  endfacet
  facet normal 0.17096188876030516 0 0.9852776423889407
    outer loop
      vertex -1.629004188834671 0 21.66044290863303
      vertex -1.2251994617022706 0 21.59037614179408
      vertex -1.629004188834671 7.3156028430155295 21.66044290863303
    endloop
  endfacet
  facet normal 0.12241067519922379 0 0.992479534598709
    outer loop
      vertex -1.2251994617022706 0 21.59037614179408
      vertex -0.818443121751831 0 21.540207532287155
      vertex -1.2251994617022706 7.548739610997464 21.59037614179408
    endloop
  endfacet
  facet normal 0.07356456359965852 0 0.9972904566786909
    outer loop
      vertex -0.818443121751831 0 21.540207532287155
      vertex -0.4097150806339404 0 21.510057940686814
      vertex -0.818443121751831 7.783580493434961 21.540207532287155
    endloop
  endfacet
  facet normal 0.024541228522919643 0 0.999698818696204
    outer loop
      vertex -0.4097150806339404 0 21.510057940686814
      vertex 0 0 21.5
      vertex -0.4097150806339404 8.0195597380726 21.510057940686814
    endloop
  endfacet
  facet normal 0.4052413140049851 0 0.9142097557035327
    outer loop
      vertex -3.1954066602484996 0 22.13560590353076
      vertex -3.1954066602484996 6.41123995420617 22.13560590353076
      vertex -3.570085030142855 6.194919296421329 22.30168940241925
    endloop
  endfacet
  facet normal 0.35989503653499577 0 0.932992798834736
    outer loop
      vertex -2.8130302758250374 0 21.988107055721777
      vertex -2.8130302758250374 6.63200506275299 21.988107055721777
      vertex -3.1954066602484996 6.41123995420617 22.13560590353076
    endloop
  endfacet
  facet normal 0.3136817403988858 0 0.9495281805930386
    outer loop
      vertex -2.4238770550747604 0 21.85954819663606
      vertex -2.4238770550747604 6.856682779578559 21.85954819663606
      vertex -2.8130302758250374 6.63200506275299 21.988107055721777
    endloop
  endfacet
  facet normal 0.26671275747490364 0 0.9637760657954385
    outer loop
      vertex -2.0288845021922532 0 21.750239035825558
      vertex -2.0288845021922532 7.0847318363835985 21.750239035825558
      vertex -2.4238770550747604 6.856682779578559 21.85954819663606
    endloop
  endfacet
  facet normal 0.21910124015686142 0 0.9757021300385305
    outer loop
      vertex -1.629004188834671 0 21.66044290863303
      vertex -1.629004188834671 7.3156028430155295 21.66044290863303
      vertex -2.0288845021922532 7.0847318363835985 21.750239035825558
    endloop
  endfacet
  facet normal 0.17096188876030513 0 0.9852776423889406
    outer loop
      vertex -1.2251994617022706 0 21.59037614179408
      vertex -1.2251994617022706 7.548739610997464 21.59037614179408
      vertex -1.629004188834671 7.3156028430155295 21.66044290863303
    endloop
  endfacet
  facet normal 0.12241067519922379 0 0.9924795345987091
    outer loop
      vertex -0.818443121751831 0 21.540207532287155
      vertex -0.818443121751831 7.783580493434961 21.540207532287155
      vertex -1.2251994617022706 7.548739610997464 21.59037614179408
    endloop
  endfacet
  facet normal 0.07356456359965853 0 0.9972904566786909
    outer loop
      vertex -0.4097150806339404 0 21.510057940686814
      vertex -0.4097150806339404 8.0195597380726 21.510057940686814
      vertex -0.818443121751831 7.783580493434961 21.540207532287155
    endloop
  endfacet
  facet normal 0.024541228522919643 0 0.9996988186962039
    outer loop
      vertex 0 0 21.5
      vertex 0 8.256108850240707 21.5
      vertex -0.4097150806339404 8.0195597380726 21.510057940686814
    endloop
  endfacet
  facet normal 0 1 0
    outer loop
      vertex 3.1954066602484996 0 22.13560590353076
      vertex -6.409077824038653 0 24.5
      vertex 3.570085030142855 0 22.30168940241925
    endloop
  endfacet
  facet normal 0 1 0
    outer loop
      vertex 3.570085030142855 0 22.30168940241925
      vertex -6.409077824038653 0 24.5
      vertex 3.93616275249708 0 22.485957442691237
    endloop
  endfacet
  facet normal 0 1 0
    outer loop
      vertex 3.93616275249708 0 22.485957442691237
      vertex -6.409077824038653 0 24.5
      vertex 4.292757914013402 0 22.68796610649773
    endloop
  endfacet
  facet normal 0 1 0
    outer loop
      vertex 4.292757914013402 0 22.68796610649773
      vertex -6.409077824038653 0 24.5
      vertex 4.639011445713678 0 22.907228737273748
    endloop
  endfacet
  facet normal 0 1 0
    outer loop
      vertex 4.639011445713678 0 22.907228737273748
      vertex -6.409077824038653 0 24.5
      vertex 4.974089192511818 0 23.143217112136618
    endloop
  endfacet
  facet normal 0 1 0
    outer loop
      vertex 4.974089192511818 0 23.143217112136618
      vertex -6.409077824038653 0 24.5
      vertex 5.29718392276644 0 23.395362714421147
    endloop
  endfacet
  facet normal 0 1 0
    outer loop
      vertex 5.29718392276644 0 23.395362714421147
      vertex -6.409077824038653 0 24.5
      vertex 5.607517272972604 0 23.663058103286094
    endloop
  endfacet
  facet normal 0 1 0
    outer loop
      vertex 5.607517272972604 0 23.663058103286094
      vertex -6.409077824038653 0 24.5
      vertex 5.904341622907672 0 23.94565837709233
    endloop
  endfacet
  facet normal -0.024541228522919643 0 0.999698818696204
    outer loop
      vertex 0 0 21.5
      vertex 0.4097150806339404 0 21.510057940686814
      vertex 0.4097150806339404 8.0195597380726 21.510057940686814
    endloop
  endfacet
  facet normal -0.07356456359965852 0 0.9972904566786909
    outer loop
      vertex 0.4097150806339404 0 21.510057940686814
      vertex 0.818443121751831 0 21.540207532287155
      vertex 0.818443121751831 7.783580493434961 21.540207532287155
    endloop
  endfacet
  facet normal -0.12241067519922379 0 0.992479534598709
    outer loop
      vertex 0.818443121751831 0 21.540207532287155
      vertex 1.2251994617022706 0 21.59037614179408
      vertex 1.2251994617022706 7.548739610997464 21.59037614179408
    endloop
  endfacet
  facet normal -0.17096188876030516 0 0.9852776423889407
    outer loop
      vertex 1.2251994617022706 0 21.59037614179408
      vertex 1.629004188834671 0 21.66044290863303
      vertex 1.629004188834671 7.3156028430155295 21.66044290863303
    endloop
  endfacet
  facet normal 0 1 0
    outer loop
      vertex 5.904341622907672 0 23.94565837709233
      vertex -6.409077824038653 0 24.5
      vertex 6.1869418967139085 0 24.242482727027397
    endloop
  endfacet
  facet normal 0 1 0
    outer loop
      vertex 6.1869418967139085 0 24.242482727027397
      vertex -6.409077824038653 0 24.5
      vertex 6.409077824038653 0 24.5
    endloop
  endfacet
  facet normal -0.2191012401568614 0 0.9757021300385303
    outer loop
      vertex 1.629004188834671 0 21.66044290863303
      vertex 2.0288845021922532 0 21.750239035825558
      vertex 2.0288845021922532 7.0847318363835985 21.750239035825558
    endloop
  endfacet
  facet normal -0.2667127574749036 0 0.9637760657954385
    outer loop
      vertex 2.0288845021922532 0 21.750239035825558
      vertex 2.4238770550747604 0 21.85954819663606
      vertex 2.4238770550747604 6.856682779578559 21.85954819663606
    endloop
  endfacet
  facet normal -0.3136817403988858 0 0.9495281805930386
    outer loop
      vertex 2.4238770550747604 0 21.85954819663606
      vertex 2.8130302758250374 0 21.988107055721777
      vertex 2.8130302758250374 6.63200506275299 21.988107055721777
    endloop
  endfacet
  facet normal -0.35989503653499577 0 0.9329927988347358
    outer loop
      vertex 2.8130302758250374 0 21.988107055721777
      vertex 3.1954066602484996 0 22.13560590353076
      vertex 3.1954066602484996 6.41123995420617 22.13560590353076
    endloop
  endfacet
  facet normal -0.40524131400498514 0 0.9142097557035328
    outer loop
      vertex 3.1954066602484996 0 22.13560590353076
      vertex 3.570085030142855 0 22.30168940241925
      vertex 3.570085030142855 6.194919296421329 22.30168940241925
    endloop
  endfacet
  facet normal -0.024541228522919643 0 0.9996988186962039
    outer loop
      vertex 0 0 21.5
      vertex 0.4097150806339404 8.0195597380726 21.510057940686814
      vertex 0 8.256108850240707 21.5
    endloop
  endfacet
  facet normal -0.07356456359965853 0 0.9972904566786909
    outer loop
      vertex 0.4097150806339404 0 21.510057940686814
      vertex 0.818443121751831 7.783580493434961 21.540207532287155
      vertex 0.4097150806339404 8.0195597380726 21.510057940686814
    endloop
  endfacet
  facet normal -0.12241067519922379 0 0.9924795345987091
    outer loop
      vertex 0.818443121751831 0 21.540207532287155
      vertex 1.2251994617022706 7.548739610997464 21.59037614179408
      vertex 0.818443121751831 7.783580493434961 21.540207532287155
    endloop
  endfacet
  facet normal -0.17096188876030513 0 0.9852776423889406
    outer loop
      vertex 1.2251994617022706 0 21.59037614179408
      vertex 1.629004188834671 7.3156028430155295 21.66044290863303
      vertex 1.2251994617022706 7.548739610997464 21.59037614179408
    endloop
  endfacet
  facet normal -0.21910124015686142 0 0.9757021300385305
    outer loop
      vertex 1.629004188834671 0 21.66044290863303
      vertex 2.0288845021922532 7.0847318363835985 21.750239035825558
      vertex 1.629004188834671 7.3156028430155295 21.66044290863303
    endloop
  endfacet
  facet normal -0.26671275747490364 0 0.9637760657954385
    outer loop
      vertex 2.0288845021922532 0 21.750239035825558
      vertex 2.4238770550747604 6.856682779578559 21.85954819663606
      vertex 2.0288845021922532 7.0847318363835985 21.750239035825558
    endloop
  endfacet
  facet normal -0.3136817403988858 0 0.9495281805930386
    outer loop
      vertex 2.4238770550747604 0 21.85954819663606
      vertex 2.8130302758250374 6.63200506275299 21.988107055721777
      vertex 2.4238770550747604 6.856682779578559 21.85954819663606
    endloop
  endfacet
  facet normal -0.35989503653499577 0 0.932992798834736
    outer loop
      vertex 2.8130302758250374 0 21.988107055721777
      vertex 3.1954066602484996 6.41123995420617 22.13560590353076
      vertex 2.8130302758250374 6.63200506275299 21.988107055721777
    endloop
  endfacet
  facet normal -0.4052413140049851 0 0.9142097557035327
    outer loop
      vertex 3.1954066602484996 0 22.13560590353076
      vertex 3.570085030142855 6.194919296421329 22.30168940241925
      vertex 3.1954066602484996 6.41123995420617 22.13560590353076
    endloop
  endfacet
  facet normal -0.44961132965460743 0 0.8932243011955149
    outer loop
      vertex 3.570085030142855 0 22.30168940241925
      vertex 3.93616275249708 0 22.485957442691237
      vertex 3.93616275249708 5.98356422481052 22.485957442691237
    endloop
  endfacet
  facet normal -0.4928981922297816 0 0.8700869911087127
    outer loop
      vertex 3.93616275249708 0 22.485957442691237
      vertex 4.292757914013402 0 22.68796610649773
      vertex 4.292757914013402 5.777683912253773 22.68796610649773
    endloop
  endfacet
  facet normal -0.534997619887097 0 0.8448535652497071
    outer loop
      vertex 4.292757914013402 0 22.68796610649773
      vertex 4.639011445713678 0 22.907228737273748
      vertex 4.639011445713678 5.5777743424570225 22.907228737273748
    endloop
  endfacet
  facet normal -0.5758081914178496 0 0.8175848131515806
    outer loop
      vertex 4.639011445713678 0 22.907228737273748
      vertex 4.974089192511818 0 23.143217112136618
      vertex 4.974089192511818 5.384317115083919 23.143217112136618
    endloop
  endfacet
  facet normal -0.6152315905806226 0 0.7883464276266096
    outer loop
      vertex 4.974089192511818 0 23.143217112136618
      vertex 5.29718392276644 0 23.395362714421147
      vertex 5.29718392276644 5.197778285540055 23.395362714421147
    endloop
  endfacet
  facet normal -0.4496113296546075 0 0.8932243011955149
    outer loop
      vertex 3.570085030142855 0 22.30168940241925
      vertex 3.93616275249708 5.98356422481052 22.485957442691237
      vertex 3.570085030142855 6.194919296421329 22.30168940241925
    endloop
  endfacet
  facet normal -0.4928981922297816 0 0.8700869911087128
    outer loop
      vertex 3.93616275249708 0 22.485957442691237
      vertex 4.292757914013402 5.777683912253773 22.68796610649773
      vertex 3.93616275249708 5.98356422481052 22.485957442691237
    endloop
  endfacet
  facet normal -0.534997619887097 0 0.8448535652497073
    outer loop
      vertex 4.292757914013402 0 22.68796610649773
      vertex 4.639011445713678 5.5777743424570225 22.907228737273748
      vertex 4.292757914013402 5.777683912253773 22.68796610649773
    endloop
  endfacet
  facet normal -0.5758081914178496 0 0.8175848131515806
    outer loop
      vertex 4.639011445713678 0 22.907228737273748
      vertex 4.974089192511818 5.384317115083919 23.143217112136618
      vertex 4.639011445713678 5.5777743424570225 22.907228737273748
    endloop
  endfacet
  facet normal -0.6152315905806227 0 0.7883464276266097
    outer loop
      vertex 4.974089192511818 0 23.143217112136618
      vertex 5.29718392276644 5.197778285540055 23.395362714421147
      vertex 4.974089192511818 5.384317115083919 23.143217112136618
    endloop
  endfacet
  facet normal -0.6531728429537785 0 0.757208846506483
    outer loop
      vertex 5.29718392276644 0 23.395362714421147
      vertex 5.607517272972604 0 23.663058103286094
      vertex 5.607517272972604 5.018607242204675 23.663058103286094
    endloop
  endfacet
  facet normal -0.6895405447370656 0 0.7242470829514681
    outer loop
      vertex 5.607517272972604 0 23.663058103286094
      vertex 5.904341622907672 0 23.94565837709233
      vertex 5.904341622907672 4.847235623814704 23.94565837709233
    endloop
  endfacet
  facet normal -0.724247082951467 0 0.6895405447370668
    outer loop
      vertex 5.904341622907672 0 23.94565837709233
      vertex 6.1869418967139085 0 24.242482727027397
      vertex 6.1869418967139085 4.684076279609224 24.242482727027397
    endloop
  endfacet
  facet normal -0.7572088465064853 0 0.6531728429537756
    outer loop
      vertex 6.1869418967139085 0 24.242482727027397
      vertex 6.409077824038653 0 24.5
      vertex 6.409077824038653 4.555826042131988 24.5
    endloop
  endfacet
  facet normal -0.6531728429537786 0 0.757208846506483
    outer loop
      vertex 5.29718392276644 0 23.395362714421147
      vertex 5.607517272972604 5.018607242204675 23.663058103286094
      vertex 5.29718392276644 5.197778285540055 23.395362714421147
    endloop
  endfacet
  facet normal -0.6895405447370657 0 0.7242470829514682
    outer loop
      vertex 5.607517272972604 0 23.663058103286094
      vertex 5.904341622907672 4.847235623814704 23.94565837709233
      vertex 5.607517272972604 5.018607242204675 23.663058103286094
    endloop
  endfacet
  facet normal -0.724247082951467 0 0.6895405447370667
    outer loop
      vertex 5.904341622907672 0 23.94565837709233
      vertex 6.1869418967139085 4.684076279609224 24.242482727027397
      vertex 5.904341622907672 4.847235623814704 23.94565837709233
    endloop
  endfacet
  facet normal -0.7572088465064855 0 0.6531728429537756
    outer loop
      vertex 6.1869418967139085 0 24.242482727027397
      vertex 6.409077824038653 4.555826042131988 24.5
      vertex 6.1869418967139085 4.684076279609224 24.242482727027397
    endloop
  endfacet
  facet normal -0.5000000001158096 -0.866025403717576 0
    outer loop
      vertex -7.149999998509884 -4.128054425120354 0
      vertex 0 -8.256108850240707 0
      vertex -7.149999998509884 -4.128054425120354 24.5
    endloop
  endfacet
  facet normal 0 0 -1
    outer loop
      vertex -7.149999998509884 -4.128054425120354 0
      vertex -7.149999998509884 4.128054425120354 0
      vertex -4.149999998509884 -2.396003618836403 0
    endloop
  endfacet
  facet normal 0 0 -1
    outer loop
      vertex -7.149999998509884 -4.128054425120354 0
      vertex -4.149999998509884 -2.396003618836403 0
      vertex 0 -4.792007237672806 0
    endloop
  endfacet
  facet normal 0 0 -1
    outer loop
      vertex -7.149999998509884 -4.128054425120354 0
      vertex 0 -4.792007237672806 0
      vertex 0 -8.256108850240707 0
    endloop
  endfacet
  facet normal -1 0 0
    outer loop
      vertex -7.149999998509884 -4.128054425120354 0
      vertex -7.149999998509884 -4.128054425120354 24.5
      vertex -7.149999998509884 4.128054425120354 24.5
    endloop
  endfacet
  facet normal 0 0 1
    outer loop
      vertex -7.149999998509884 -4.128054425120354 24.5
      vertex 0 -8.256108850240707 24.5
      vertex -6.409077824038653 0 24.5
    endloop
  endfacet
  facet normal -0.5000000001158096 -0.866025403717576 0
    outer loop
      vertex -7.149999998509884 -4.128054425120354 24.5
      vertex 0 -8.256108850240707 0
      vertex 0 -8.256108850240707 24.5
    endloop
  endfacet
  facet normal 0 0 -1
    outer loop
      vertex -7.149999998509884 4.128054425120354 0
      vertex -4.149999998509884 2.396003618836403 0
      vertex -4.149999998509884 -2.396003618836403 0
    endloop
  endfacet
  facet normal -1 0 0
    outer loop
      vertex -7.149999998509884 -4.128054425120354 0
      vertex -7.149999998509884 4.128054425120354 24.5
      vertex -7.149999998509884 4.128054425120354 0
    endloop
  endfacet
  facet normal 0 0 -1
    outer loop
      vertex -7.149999998509884 4.128054425120354 0
      vertex 0 8.256108850240707 0
      vertex -4.149999998509884 2.396003618836403 0
    endloop
  endfacet
  facet normal 0 0 -1
    outer loop
      vertex 0 8.256108850240707 0
      vertex 0 4.792007237672806 0
      vertex -4.149999998509884 2.396003618836403 0
    endloop
  endfacet
  facet normal -0.5000000001158096 0.866025403717576 0
    outer loop
      vertex -7.149999998509884 4.128054425120354 0
      vertex -0.818443121751831 7.783580493434961 21.540207532287155
      vertex 0 8.256108850240707 0
    endloop
  endfacet
  facet normal 0 0 1
    outer loop
      vertex -7.149999998509884 -4.128054425120354 24.5
      vertex -6.409077824038653 0 24.5
      vertex -7.149999998509884 4.128054425120354 24.5
    endloop
  endfacet
  facet normal 0 0 1
    outer loop
      vertex -7.149999998509884 4.128054425120354 24.5
      vertex -6.409077824038653 0 24.5
      vertex -6.409077824038653 4.555826042131989 24.5
    endloop
  endfacet
  facet normal -0.5000000001158103 0.8660254037175755 0
    outer loop
      vertex -7.149999998509884 4.128054425120354 0
      vertex -7.149999998509884 4.128054425120354 24.5
      vertex -6.409077824038653 4.555826042131989 24.5
    endloop
  endfacet
  facet normal -0.5000000001158091 0.8660254037175761 -2.6944359048040732e-17
    outer loop
      vertex -7.149999998509884 4.128054425120354 0
      vertex -6.1869418967139085 4.684076279609224 24.242482727027397
      vertex -5.904341622907672 4.847235623814704 23.94565837709233
    endloop
  endfacet
  facet normal -0.5000000001158076 0.8660254037175771 -1.1094415006782092e-16
    outer loop
      vertex -7.149999998509884 4.128054425120354 0
      vertex -6.409077824038653 4.555826042131989 24.5
      vertex -6.1869418967139085 4.684076279609224 24.242482727027397
    endloop
  endfacet
  facet normal -0.5000000001158099 0.8660254037175756 0
    outer loop
      vertex -7.149999998509884 4.128054425120354 0
      vertex -5.904341622907672 4.847235623814704 23.94565837709233
      vertex -5.607517272972604 5.018607242204675 23.663058103286094
    endloop
  endfacet
  facet normal -0.5000000001158095 0.866025403717576 -2.4792103076787954e-17
    outer loop
      vertex -7.149999998509884 4.128054425120354 0
      vertex -5.607517272972604 5.018607242204675 23.663058103286094
      vertex -5.29718392276644 5.197778285540055 23.395362714421147
    endloop
  endfacet
  facet normal -0.5000000001158101 0.8660254037175755 4.791774849451696e-17
    outer loop
      vertex -7.149999998509884 4.128054425120354 0
      vertex -5.29718392276644 5.197778285540055 23.395362714421147
      vertex -4.974089192511818 5.384317115083919 23.143217112136618
    endloop
  endfacet
  facet normal -0.5000000001158099 0.8660254037175759 0
    outer loop
      vertex -7.149999998509884 4.128054425120354 0
      vertex -4.974089192511818 5.384317115083919 23.143217112136618
      vertex -4.639011445713678 5.5777743424570225 22.907228737273748
    endloop
  endfacet
  facet normal -0.5000000001158093 0.8660254037175762 -1.8136292254937433e-16
    outer loop
      vertex -7.149999998509884 4.128054425120354 0
      vertex -4.639011445713678 5.5777743424570225 22.907228737273748
      vertex -4.292757914013402 5.777683912253773 22.68796610649773
    endloop
  endfacet
  facet normal -0.5000000001158089 0.8660254037175763 -8.87424995773079e-17
    outer loop
      vertex -7.149999998509884 4.128054425120354 0
      vertex -4.292757914013402 5.777683912253773 22.68796610649773
      vertex -3.93616275249708 5.98356422481052 22.485957442691237
    endloop
  endfacet
  facet normal -0.5000000001158097 0.8660254037175759 8.717148129540052e-17
    outer loop
      vertex -7.149999998509884 4.128054425120354 0
      vertex -3.93616275249708 5.98356422481052 22.485957442691237
      vertex -3.570085030142855 6.194919296421329 22.30168940241925
    endloop
  endfacet
  facet normal -0.5000000001158088 0.8660254037175764 0
    outer loop
      vertex -7.149999998509884 4.128054425120354 0
      vertex -3.570085030142855 6.194919296421329 22.30168940241925
      vertex -3.1954066602484996 6.41123995420617 22.13560590353076
    endloop
  endfacet
  facet normal -0.5000000001158094 0.8660254037175762 0
    outer loop
      vertex -7.149999998509884 4.128054425120354 0
      vertex -3.1954066602484996 6.41123995420617 22.13560590353076
      vertex -2.8130302758250374 6.63200506275299 21.988107055721777
    endloop
  endfacet
  facet normal -0.5000000001158108 0.8660254037175752 3.375729112087759e-16
    outer loop
      vertex -7.149999998509884 4.128054425120354 0
      vertex -2.8130302758250374 6.63200506275299 21.988107055721777
      vertex -2.4238770550747604 6.856682779578559 21.85954819663606
    endloop
  endfacet
  facet normal -0.5000000001158095 0.8660254037175761 -1.6811011360189061e-16
    outer loop
      vertex -7.149999998509884 4.128054425120354 0
      vertex -2.4238770550747604 6.856682779578559 21.85954819663606
      vertex -2.0288845021922532 7.0847318363835985 21.750239035825558
    endloop
  endfacet
  facet normal -0.5000000001158087 0.8660254037175765 0
    outer loop
      vertex -7.149999998509884 4.128054425120354 0
      vertex -2.0288845021922532 7.0847318363835985 21.750239035825558
      vertex -1.629004188834671 7.3156028430155295 21.66044290863303
    endloop
  endfacet
  facet normal -0.5000000001158114 0.866025403717575 6.73731800308492e-16
    outer loop
      vertex -7.149999998509884 4.128054425120354 0
      vertex -1.629004188834671 7.3156028430155295 21.66044290863303
      vertex -1.2251994617022706 7.548739610997464 21.59037614179408
    endloop
  endfacet
  facet normal -0.5000000001158089 0.8660254037175763 -3.3887561647171956e-16
    outer loop
      vertex -7.149999998509884 4.128054425120354 0
      vertex -1.2251994617022706 7.548739610997464 21.59037614179408
      vertex -0.818443121751831 7.783580493434961 21.540207532287155
    endloop
  endfacet
  facet normal -0.5000000001158089 0.8660254037175763 4.380618844337771e-17
    outer loop
      vertex 0 8.256108850240707 0
      vertex -0.818443121751831 7.783580493434961 21.540207532287155
      vertex -0.4097150806339404 8.0195597380726 21.510057940686814
    endloop
  endfacet
  facet normal -0.5000000001158106 0.8660254037175753 0
    outer loop
      vertex 0 8.256108850240707 0
      vertex -0.4097150806339404 8.0195597380726 21.510057940686814
      vertex 0 8.256108850240707 21.5
    endloop
  endfacet
  facet normal 0 0 -1
    outer loop
      vertex 0 -8.256108850240707 0
      vertex 0 -4.792007237672806 0
      vertex 4.149999998509884 -2.396003618836403 0
    endloop
  endfacet
  facet normal 0.5000000001158096 -0.866025403717576 0
    outer loop
      vertex 0 -8.256108850240707 0
      vertex 7.149999998509884 -4.128054425120354 0
      vertex 0 -8.256108850240707 24.5
    endloop
  endfacet
  facet normal 0 0 -1
    outer loop
      vertex 0 -8.256108850240707 0
      vertex 4.149999998509884 -2.396003618836403 0
      vertex 7.149999998509884 -4.128054425120354 0
    endloop
  endfacet
  facet normal 0 0 -1
    outer loop
      vertex 7.149999998509884 -4.128054425120354 0
      vertex 4.149999998509884 -2.396003618836403 0
      vertex 4.149999998509884 2.396003618836403 0
    endloop
  endfacet
  facet normal 1 0 0
    outer loop
      vertex 7.149999998509884 -4.128054425120354 0
      vertex 7.149999998509884 4.128054425120354 0
      vertex 7.149999998509884 -4.128054425120354 24.5
    endloop
  endfacet
  facet normal 0 0 1
    outer loop
      vertex 0 -8.256108850240707 24.5
      vertex 7.149999998509884 -4.128054425120354 24.5
      vertex -6.409077824038653 0 24.5
    endloop
  endfacet
  facet normal 0 0 1
    outer loop
      vertex 7.149999998509884 -4.128054425120354 24.5
      vertex 6.409077824038653 0 24.5
      vertex -6.409077824038653 0 24.5
    endloop
  endfacet
  facet normal 0.5000000001158096 -0.866025403717576 0
    outer loop
      vertex 7.149999998509884 -4.128054425120354 0
      vertex 7.149999998509884 -4.128054425120354 24.5
      vertex 0 -8.256108850240707 24.5
    endloop
  endfacet
  facet normal 0 0 -1
    outer loop
      vertex 0 8.256108850240707 0
      vertex 7.149999998509884 4.128054425120354 0
      vertex 0 4.792007237672806 0
    endloop
  endfacet
  facet normal 0 0 -1
    outer loop
      vertex 7.149999998509884 4.128054425120354 0
      vertex 4.149999998509884 2.396003618836403 0
      vertex 0 4.792007237672806 0
    endloop
  endfacet
  facet normal 0 0 -1
    outer loop
      vertex 7.149999998509884 -4.128054425120354 0
      vertex 4.149999998509884 2.396003618836403 0
      vertex 7.149999998509884 4.128054425120354 0
    endloop
  endfacet
  facet normal 0.5000000001158096 0.866025403717576 0
    outer loop
      vertex 0 8.256108850240707 0
      vertex 7.149999998509884 4.128054425120354 24.5
      vertex 7.149999998509884 4.128054425120354 0
    endloop
  endfacet
  facet normal 0.5000000001158106 0.8660254037175753 0
    outer loop
      vertex 0 8.256108850240707 0
      vertex 0 8.256108850240707 21.5
      vertex 0.4097150806339404 8.0195597380726 21.510057940686814
    endloop
  endfacet
  facet normal 0.5000000001158089 0.8660254037175763 4.380618844337771e-17
    outer loop
      vertex 0 8.256108850240707 0
      vertex 0.4097150806339404 8.0195597380726 21.510057940686814
      vertex 0.818443121751831 7.783580493434961 21.540207532287155
    endloop
  endfacet
  facet normal 0.5000000001158086 0.8660254037175764 5.512729707241757e-17
    outer loop
      vertex 0 8.256108850240707 0
      vertex 0.818443121751831 7.783580493434961 21.540207532287155
      vertex 1.2251994617022706 7.548739610997464 21.59037614179408
    endloop
  endfacet
  facet normal 0.5000000001158108 0.8660254037175752 -1.1137988901065006e-16
    outer loop
      vertex 0 8.256108850240707 0
      vertex 1.2251994617022706 7.548739610997464 21.59037614179408
      vertex 1.629004188834671 7.3156028430155295 21.66044290863303
    endloop
  endfacet
  facet normal 0.50000000011581 0.8660254037175757 0
    outer loop
      vertex 0 8.256108850240707 0
      vertex 1.629004188834671 7.3156028430155295 21.66044290863303
      vertex 2.0288845021922532 7.0847318363835985 21.750239035825558
    endloop
  endfacet
  facet normal 0.5000000001158083 0.8660254037175767 2.297609301023593e-16
    outer loop
      vertex 0 8.256108850240707 0
      vertex 2.0288845021922532 7.0847318363835985 21.750239035825558
      vertex 2.4238770550747604 6.856682779578559 21.85954819663606
    endloop
  endfacet
  facet normal 0.5000000001158109 0.8660254037175751 -2.815773399579305e-16
    outer loop
      vertex 0 8.256108850240707 0
      vertex 2.4238770550747604 6.856682779578559 21.85954819663606
      vertex 2.8130302758250374 6.63200506275299 21.988107055721777
    endloop
  endfacet
  facet normal 0.5000000001158096 0.866025403717576 0
    outer loop
      vertex 0 8.256108850240707 0
      vertex 2.8130302758250374 6.63200506275299 21.988107055721777
      vertex 3.1954066602484996 6.41123995420617 22.13560590353076
    endloop
  endfacet
  facet normal 0.5000000001158084 0.8660254037175766 9.908311976615726e-17
    outer loop
      vertex 0 8.256108850240707 0
      vertex 3.1954066602484996 6.41123995420617 22.13560590353076
      vertex 3.570085030142855 6.194919296421329 22.30168940241925
    endloop
  endfacet
  facet normal 0.5000000001158099 0.8660254037175756 0
    outer loop
      vertex 0 8.256108850240707 0
      vertex 3.570085030142855 6.194919296421329 22.30168940241925
      vertex 3.93616275249708 5.98356422481052 22.485957442691237
    endloop
  endfacet
  facet normal 0.5000000001158088 0.8660254037175763 0
    outer loop
      vertex 0 8.256108850240707 0
      vertex 3.93616275249708 5.98356422481052 22.485957442691237
      vertex 4.292757914013402 5.777683912253773 22.68796610649773
    endloop
  endfacet
  facet normal 0.5000000001158088 0.8660254037175765 2.2248314306663573e-16
    outer loop
      vertex 0 8.256108850240707 0
      vertex 4.292757914013402 5.777683912253773 22.68796610649773
      vertex 4.639011445713678 5.5777743424570225 22.907228737273748
    endloop
  endfacet
  facet normal 0.5000000001158093 0.8660254037175761 0
    outer loop
      vertex 0 8.256108850240707 0
      vertex 4.639011445713678 5.5777743424570225 22.907228737273748
      vertex 4.974089192511818 5.384317115083919 23.143217112136618
    endloop
  endfacet
  facet normal 0.5000000001158098 0.8660254037175757 -2.471969588681757e-16
    outer loop
      vertex 0 8.256108850240707 0
      vertex 4.974089192511818 5.384317115083919 23.143217112136618
      vertex 5.29718392276644 5.197778285540055 23.395362714421147
    endloop
  endfacet
  facet normal 1 0 0
    outer loop
      vertex 7.149999998509884 -4.128054425120354 24.5
      vertex 7.149999998509884 4.128054425120354 0
      vertex 7.149999998509884 4.128054425120354 24.5
    endloop
  endfacet
  facet normal 0 0 1
    outer loop
      vertex 7.149999998509884 -4.128054425120354 24.5
      vertex 7.149999998509884 4.128054425120354 24.5
      vertex 6.409077824038653 0 24.5
    endloop
  endfacet
  facet normal 0 0 1
    outer loop
      vertex 7.149999998509884 4.128054425120354 24.5
      vertex 6.409077824038653 4.555826042131988 24.5
      vertex 6.409077824038653 0 24.5
    endloop
  endfacet
  facet normal 0.5000000001158096 0.866025403717576 0
    outer loop
      vertex 0 8.256108850240707 0
      vertex 5.29718392276644 5.197778285540055 23.395362714421147
      vertex 5.607517272972604 5.018607242204675 23.663058103286094
    endloop
  endfacet
  facet normal 0.5000000001158103 0.8660254037175755 0
    outer loop
      vertex 0 8.256108850240707 0
      vertex 5.607517272972604 5.018607242204675 23.663058103286094
      vertex 5.904341622907672 4.847235623814704 23.94565837709233
    endloop
  endfacet
  facet normal 0.5000000001158087 0.8660254037175764 6.135690468441088e-16
    outer loop
      vertex 0 8.256108850240707 0
      vertex 5.904341622907672 4.847235623814704 23.94565837709233
      vertex 6.1869418967139085 4.684076279609224 24.242482727027397
    endloop
  endfacet
  facet normal 0.5000000001158131 0.8660254037175739 0
    outer loop
      vertex 0 8.256108850240707 0
      vertex 6.1869418967139085 4.684076279609224 24.242482727027397
      vertex 6.409077824038653 4.555826042131988 24.5
    endloop
  endfacet
  facet normal 0.5000000001158096 0.866025403717576 0
    outer loop
      vertex 0 8.256108850240707 0
      vertex 6.409077824038653 4.555826042131988 24.5
      vertex 7.149999998509884 4.128054425120354 24.5
    endloop
  endfacet
  facet normal 0.500000000400632 0.8660254035531337 0
    outer loop
      vertex -4.149999998509884 -2.396003618836403 20
      vertex 0 -4.792007237672806 0
      vertex -4.149999998509884 -2.396003618836403 0
    endloop
  endfacet
  facet normal 1 0 0
    outer loop
      vertex -4.149999998509884 -2.396003618836403 20
      vertex -4.149999998509884 -2.396003618836403 0
      vertex -4.149999998509884 2.396003618836403 20
    endloop
  endfacet
  facet normal 0.500000000400632 0.8660254035531337 0
    outer loop
      vertex -4.149999998509884 -2.396003618836403 20
      vertex 0 -4.792007237672806 20
      vertex 0 -4.792007237672806 0
    endloop
  endfacet
  facet normal 1 0 0
    outer loop
      vertex -4.149999998509884 2.396003618836403 20
      vertex -4.149999998509884 -2.396003618836403 0
      vertex -4.149999998509884 2.396003618836403 0
    endloop
  endfacet
  facet normal 0.500000000400632 -0.8660254035531337 0
    outer loop
      vertex 0 4.792007237672806 20
      vertex -4.149999998509884 2.396003618836403 0
      vertex 0 4.792007237672806 0
    endloop
  endfacet
  facet normal 0.500000000400632 -0.8660254035531337 0
    outer loop
      vertex -4.149999998509884 2.396003618836403 20
      vertex -4.149999998509884 2.396003618836403 0
      vertex 0 4.792007237672806 20
    endloop
  endfacet
  facet normal 0 0 -1
    outer loop
      vertex -4.149999998509884 -2.396003618836403 20
      vertex -4.149999998509884 2.396003618836403 20
      vertex 0 4.792007237672806 20
    endloop
  endfacet
  facet normal -0.500000000400632 0.8660254035531337 0
    outer loop
      vertex 0 -4.792007237672806 20
      vertex 4.149999998509884 -2.396003618836403 0
      vertex 0 -4.792007237672806 0
    endloop
  endfacet
  facet normal -1 0 0
    outer loop
      vertex 4.149999998509884 -2.396003618836403 20
      vertex 4.149999998509884 2.396003618836403 0
      vertex 4.149999998509884 -2.396003618836403 0
    endloop
  endfacet
  facet normal -0.500000000400632 0.8660254035531337 0
    outer loop
      vertex 0 -4.792007237672806 20
      vertex 4.149999998509884 -2.396003618836403 20
      vertex 4.149999998509884 -2.396003618836403 0
    endloop
  endfacet
  facet normal 0 0 -1
    outer loop
      vertex -4.149999998509884 -2.396003618836403 20
      vertex 4.149999998509884 2.396003618836403 20
      vertex 0 -4.792007237672806 20
    endloop
  endfacet
  facet normal 0 0 -1
    outer loop
      vertex 0 -4.792007237672806 20
      vertex 4.149999998509884 2.396003618836403 20
      vertex 4.149999998509884 -2.396003618836403 20
    endloop
  endfacet
  facet normal -0.500000000400632 -0.8660254035531337 0
    outer loop
      vertex 4.149999998509884 2.396003618836403 20
      vertex 0 4.792007237672806 0
      vertex 4.149999998509884 2.396003618836403 0
    endloop
  endfacet
  facet normal -0.500000000400632 -0.8660254035531337 0
    outer loop
      vertex 0 4.792007237672806 20
      vertex 0 4.792007237672806 0
      vertex 4.149999998509884 2.396003618836403 20
    endloop
  endfacet
  facet normal 0 0 -1
    outer loop
      vertex -4.149999998509884 -2.396003618836403 20
      vertex 0 4.792007237672806 20
      vertex 4.149999998509884 2.396003618836403 20
    endloop
  endfacet
  facet normal -1 0 0
    outer loop
      vertex 4.149999998509884 -2.396003618836403 20
      vertex 4.149999998509884 2.396003618836403 20
      vertex 4.149999998509884 2.396003618836403 0
    endloop
  endfacet
endsolid OpenSCAD_Model
